<svg xmlns="http://www.w3.org/2000/svg" width="32" height="32" viewBox="0 0 32 32">
<path d="M5.38,22.43L4.93,21.49L4.54,20.54L4.26,19.60L4.10,18.70L4.00,17.80L4.03,16.94L4.11,16.09L4.32,15.27L4.56,14.50L5.00,13.81L5.44,13.13L6.01,12.49L6.62,11.93L7.37,11.41L8.14,10.94L9.01,10.56L9.95,10.21L10.94,9.96L12.00,9.74L13.11,9.61L14.27,9.57L15.45,9.57L16.67,9.66L17.94,9.83L19.18,10.04L20.46,10.34L21.77,10.69L22.99,11.07L24.28,11.59L25.57,12.10L26.80,12.70L28.00,13.34" fill="none" stroke="#202020" stroke-width="5" stroke-linecap="round" stroke-linejoin="round"/>
<path d="M5.38,22.43L4.93,21.49L4.54,20.54L4.26,19.60L4.10,18.70L4.00,17.80L4.03,16.94L4.11,16.09L4.32,15.27L4.56,14.50L5.00,13.81L5.44,13.13L6.01,12.49L6.62,11.93L7.37,11.41L8.14,10.94L9.01,10.56L9.95,10.21L10.94,9.96L12.00,9.74L13.11,9.61L14.27,9.57L15.45,9.57L16.67,9.66L17.94,9.83L19.18,10.04L20.46,10.34L21.77,10.69L22.99,11.07L24.28,11.59L25.57,12.10L26.80,12.70L28.00,13.34" fill="none" stroke="#85c7f2" stroke-width="2.4" stroke-linecap="round" stroke-linejoin="round"/>
<circle cx="5.38" cy="22.43" r="2.1" fill="#ff947e" stroke="#202020" stroke-width=".8"/>
<path d="M25.35,9.74L28.00,13.34L23.53,13.30" fill="none" stroke="#202020" stroke-width="1.7" stroke-linecap="round" stroke-linejoin="round"/>
</svg>
